<svg xmlns="http://www.w3.org/2000/svg" xmlns:xlink="http://www.w3.org/1999/xlink" width="360" height="760" viewBox="0 0 360 760"><defs><filter id="a" x="-7" y="64" width="605" height="703" filterUnits="userSpaceOnUse"><feOffset dx="30" dy="30" input="SourceAlpha"/><feGaussianBlur stdDeviation="5" result="b"/><feFlood/><feComposite operator="in" in2="b"/><feComposite in="SourceGraphic"/></filter><clipPath id="d"><rect width="360" height="760"/></clipPath></defs><g id="c" clip-path="url(#d)"><rect width="360" height="760" fill="#020202"/><text transform="translate(72 314)" fill="#f7f7f7" font-size="79" font-family="Poppins-SemiBold, Poppins" font-weight="600" letter-spacing="0.06em"><tspan x="0" y="0">Hello</tspan><tspan x="0" y="100">I am</tspan><tspan x="0" y="200">Yash</tspan></text><g transform="matrix(1, 0, 0, 1, 0, 0)" filter="url(#a)"><text transform="translate(-7 274)" fill="rgba(35,34,34,0.35)" font-size="200" font-family="Poppins-SemiBold, Poppins" font-weight="600" letter-spacing="0.05em"><tspan x="0" y="0">DES_</tspan><tspan x="0" y="378">IGN</tspan></text></g><rect width="30" height="30" rx="11" transform="translate(273 256)" fill="rgba(49,166,181,0.6)"/><rect width="16" height="16" rx="6" transform="translate(280 263)" fill="#020202"/><circle cx="6" cy="6" r="6" transform="translate(288 303)" fill="#fd5457"/><rect width="48" height="47" rx="15" transform="translate(39 166)" fill="rgba(49,166,181,0.6)"/><rect width="26" height="26" rx="9" transform="translate(50 177)" fill="#010101"/><rect width="48" height="47" rx="15" transform="translate(193 559)" fill="rgba(49,166,181,0.6)"/><rect width="26" height="26" rx="9" transform="translate(204 570)" fill="#010101"/></g></svg>