<svg xmlns="http://www.w3.org/2000/svg" width="34" height="30" viewBox="0 0 34 30"><path d="M17,0C7.613,0,0,6.886,0,15.379c0,6.8,4.87,12.56,11.627,14.594.849.142,1.123-.334,1.123-.739V26.37c-4.729.93-5.713-1.815-5.713-1.815A4.213,4.213,0,0,0,5.148,22.3c-1.543-.955.118-.934.118-.934a3.552,3.552,0,0,1,2.605,1.585,3.843,3.843,0,0,0,4.947,1.278,3.158,3.158,0,0,1,1.08-2.056c-3.775-.391-7.745-1.71-7.745-7.6A5.652,5.652,0,0,1,7.9,10.449a5.045,5.045,0,0,1,.166-4.07S9.5,5.966,12.746,7.955a17.754,17.754,0,0,1,8.513,0c3.246-1.989,4.671-1.576,4.671-1.576a5.04,5.04,0,0,1,.167,4.07,5.636,5.636,0,0,1,1.75,4.128c0,5.907-3.977,7.208-7.762,7.588a3.5,3.5,0,0,1,1.166,2.848v4.22c0,.409.272.889,1.135.738C29.135,27.935,34,22.172,34,15.379,34,6.886,26.388,0,17,0Z" fill="#fff"/></svg>