<svg xmlns="http://www.w3.org/2000/svg" width="34" height="30" viewBox="0 0 34 30"><path d="M17,2.7c4.539,0,5.077.015,6.871.087,4.607.185,6.759,2.114,6.969,6.149.082,1.581.1,2.056.1,6.061s-.017,4.48-.1,6.061c-.211,4.031-2.357,5.964-6.969,6.149-1.793.073-2.329.088-6.871.088s-5.077-.015-6.869-.088c-4.618-.186-6.759-2.124-6.969-6.15-.082-1.581-.1-2.055-.1-6.061s.018-4.479.1-6.061c.211-4.034,2.357-5.964,6.969-6.149C11.924,2.719,12.461,2.7,17,2.7ZM17,0c-4.617,0-5.195.018-7.008.09C3.818.34.387,3.363.1,8.815.02,10.416,0,10.926,0,15s.02,4.585.1,6.185C.385,26.632,3.811,29.66,9.99,29.91c1.815.073,2.393.09,7.01.09s5.2-.017,7.01-.09c6.168-.25,9.608-3.273,9.887-8.725.084-1.6.1-2.111.1-6.185s-.02-4.584-.1-6.184C33.62,3.374,30.191.341,24.011.091,22.2.017,21.617,0,17,0Zm0,7.3c-4.821,0-8.73,3.449-8.73,7.7s3.909,7.7,8.73,7.7,8.73-3.449,8.73-7.7S21.821,7.3,17,7.3ZM17,20c-3.129,0-5.667-2.237-5.667-5S13.871,10,17,10s5.667,2.239,5.667,5S20.129,20,17,20ZM26.075,5.194a1.932,1.932,0,0,0-2.041,1.8,2.056,2.056,0,0,0,4.08,0A1.93,1.93,0,0,0,26.075,5.194Z" fill="#fff"/></svg>