<svg xmlns="http://www.w3.org/2000/svg" xmlns:xlink="http://www.w3.org/1999/xlink" width="1920" height="1080" viewBox="0 0 1920 1080"><defs><linearGradient id="a" x1="0.5" x2="0.5" y2="1" gradientUnits="objectBoundingBox"><stop offset="0"/><stop offset="1" stop-color="#131111"/></linearGradient><filter id="b" x="135" y="-151" width="1864" height="1606" filterUnits="userSpaceOnUse"><feOffset dx="30" dy="30" input="SourceAlpha"/><feGaussianBlur stdDeviation="5" result="c"/><feFlood/><feComposite operator="in" in2="c"/><feComposite in="SourceGraphic"/></filter><clipPath id="e"><rect width="1920" height="1080"/></clipPath></defs><g id="d" clip-path="url(#e)"><rect width="1920" height="1080" fill="url(#a)"/><g transform="matrix(1, 0, 0, 1, 0, 0)" filter="url(#b)"><text transform="translate(135 532)" fill="rgba(35,34,34,0.35)" font-size="650" font-family="Poppins-SemiBold, Poppins" font-weight="600" letter-spacing="0.05em"><tspan x="0" y="0">DES_</tspan><tspan x="0" y="650">IGN</tspan></text></g><line y2="1080" transform="translate(134.5)" fill="none" stroke="rgba(0,0,0,0.65)" stroke-width="2"/><line y2="1080" transform="translate(578.75)" fill="none" stroke="rgba(0,0,0,0.65)" stroke-width="2"/><line y2="1080" transform="translate(1040.5)" fill="none" stroke="rgba(0,0,0,0.65)" stroke-width="2"/><line y2="1080" transform="translate(1493.5)" fill="none" stroke="rgba(0,0,0,0.65)" stroke-width="2"/><rect width="103" height="100" rx="40" transform="translate(305 747)" fill="rgba(49,166,181,0.6)"/><g transform="translate(337 778)" fill="#1a1a1a" stroke="#707070" stroke-width="1"><rect width="39" height="39" rx="10" stroke="none"/><rect x="0.5" y="0.5" width="38" height="38" rx="9.5" fill="none"/></g><g transform="translate(475 372)" fill="rgba(49,166,181,0.6)" stroke="#707070" stroke-width="1"><rect width="70" height="69" rx="28" stroke="none"/><rect x="0.5" y="0.5" width="69" height="68" rx="27.5" fill="none"/></g><g transform="translate(497 393)" fill="#1a1a1a" stroke="#707070" stroke-width="1"><rect width="26" height="26" rx="6" stroke="none"/><rect x="0.5" y="0.5" width="25" height="25" rx="5.5" fill="none"/></g><text transform="translate(1006 388)" fill="#f7f7f7" font-size="224" font-family="Poppins-SemiBold, Poppins" font-weight="600" letter-spacing="0.05em"><tspan x="0" y="0">Hello</tspan><tspan x="0" y="231">I am</tspan><tspan x="0" y="462">Yash</tspan></text><rect width="89" height="87" rx="40" transform="translate(1553 205)" fill="rgba(49,166,181,0.6)"/><g transform="translate(1578 229)" fill="#1a1a1a" stroke="#707070" stroke-width="1"><rect width="39" height="39" rx="10" stroke="none"/><rect x="0.5" y="0.5" width="38" height="38" rx="9.5" fill="none"/></g><rect width="39" height="39" rx="10" transform="translate(337 778)" fill="#1a1a1a"/><g transform="translate(497 393)" fill="#1a1a1a" stroke="#707070" stroke-width="1"><rect width="26" height="26" rx="6" stroke="none"/><rect x="0.5" y="0.5" width="25" height="25" rx="5.5" fill="none"/></g><circle cx="15" cy="15" r="15" transform="translate(1627 356)" fill="#fd5457"/><line y2="1080" transform="translate(1742.5)" fill="none" stroke="rgba(0,0,0,0.65)" stroke-width="2"/></g></svg>