<svg xmlns="http://www.w3.org/2000/svg" width="34" height="30" viewBox="0 0 34 30"><path d="M26.044,32.669a1.607,1.607,0,0,0,1.568.218,1.715,1.715,0,0,0,1.026-1.26c1.231-6.126,4.217-21.632,5.338-27.2a1.212,1.212,0,0,0-.368-1.137,1.085,1.085,0,0,0-1.129-.21C26.538,5.4,8.245,12.671.768,15.6A1.257,1.257,0,0,0,.84,17.945c3.353,1.062,7.755,2.54,7.755,2.54s2.057,6.578,3.129,9.923a1.275,1.275,0,0,0,.854.864,1.18,1.18,0,0,0,1.149-.311l4.386-4.385s5.06,3.929,7.93,6.093Zm-15.6-13.016,2.379,8.307.528-5.261L27.782,8.921a.434.434,0,0,0,.047-.566.388.388,0,0,0-.533-.1L10.446,19.653Z" transform="translate(0 -3)" fill="#fff" fill-rule="evenodd"/></svg>