<svg xmlns="http://www.w3.org/2000/svg" width="34" height="30" viewBox="0 0 34 30"><path d="M34,5.8a13.08,13.08,0,0,1-4.006,1.192A7.509,7.509,0,0,0,33.061,2.8a13.325,13.325,0,0,1-4.43,1.838,6.721,6.721,0,0,0-5.092-2.392c-4.5,0-7.813,4.562-6.8,9.3A19.333,19.333,0,0,1,2.367,3.634,7.986,7.986,0,0,0,4.525,13.746,6.534,6.534,0,0,1,1.367,12.8,7.466,7.466,0,0,0,6.962,20.32a6.457,6.457,0,0,1-3.151.129,7.08,7.08,0,0,0,6.517,5.259A13.244,13.244,0,0,1,0,28.846a18.633,18.633,0,0,0,10.693,3.4c12.951,0,20.268-11.876,19.826-22.528A14.938,14.938,0,0,0,34,5.8Z" transform="translate(0 -2.248)" fill="#fff"/></svg>